# xmcd
#
# Track frame offsets:
#	150
#	11515
#	21490
#	33600
#	44248
#	55455
#	66035
#	77128
#	86705
#	96773
#	106973
#	116385
#	126265
#	135878
#	145298
#
# Disc length: 2065 seconds
# Revision: 0
# Processed by: cddbd v1.5.2PL0 Copyright (c) Steve Scherf et al.
# Submitted via: dBpowerAMP V12.0
#
DISCID=d2080f0f
DTITLE=Lani Maka - I'll Meet You in Hawaii
DYEAR=1997
DGENRE=
TTITLE0=Aloha Oe
TTITLE1=Poli Pumehana
TTITLE2=Kaua I Ka Huahua'i
TTITLE3=Mai Pona Oe L'au
TTITLE4=Aloha No Au I Ko Maka
TTITLE5=Adios Ke Aloha
TTITLE6=Waipio
TTITLE7=Lei Aloha
TTITLE8=Ua Like No A Like
TTITLE9=Sweet Lei Lehua
TTITLE10=Moani Ke Ala
TTITLE11=Lei Poni Moe
TTITLE12=Hawaii Ponoi
TTITLE13=Akahi Hoi
TTITLE14=Kuu Ipo I Ka Hee Pue One
EXTD=
EXTT0=
EXTT1=
EXTT2=
EXTT3=
EXTT4=
EXTT5=
EXTT6=
EXTT7=
EXTT8=
EXTT9=
EXTT10=
EXTT11=
EXTT12=
EXTT13=
EXTT14=
PLAYORDER=
